<?xml version="1.0" encoding="utf-8"?>
<!-- Generator: Adobe Illustrator 26.0.1, SVG Export Plug-In . SVG Version: 6.00 Build 0)  -->
<svg version="1.1" id="Layer_1" xmlns="http://www.w3.org/2000/svg" xmlns:xlink="http://www.w3.org/1999/xlink" x="0px" y="0px"
	 viewBox="0 0 512 512" style="enable-background:new 0 0 512 512;" xml:space="preserve">
<style type="text/css">
	.st0{fill:#F4F2F2;}
</style>
<g>
	<g>
		<g>
			<path class="st0" d="M256,108.9c-81.1,0-147.1,66-147.1,147.1s66,147.1,147.1,147.1s147.1-66,147.1-147.1S337.1,108.9,256,108.9z
				 M256,370.4c-63.1,0-114.4-51.3-114.4-114.4S192.9,141.6,256,141.6S370.4,192.9,370.4,256S319.1,370.4,256,370.4z"/>
			<path class="st0" d="M256,83.7c9,0,16.3-7.3,16.3-16.3v-51C272.3,7.3,265,0,256,0c-9,0-16.3,7.3-16.3,16.3v51
				C239.7,76.4,247,83.7,256,83.7z"/>
			<path class="st0" d="M256,428.3c-9,0-16.3,7.3-16.3,16.3v51c0,9,7.3,16.3,16.3,16.3c9,0,16.3-7.3,16.3-16.3v-51
				C272.3,435.6,265,428.3,256,428.3z"/>
			<path class="st0" d="M111.1,134.2c6.4,6.4,16.7,6.4,23.1,0c6.4-6.4,6.4-16.7,0-23.1L98.1,75c-6.4-6.4-16.7-6.4-23.1,0
				c-6.4,6.4-6.4,16.7,0,23.1L111.1,134.2z"/>
			<path class="st0" d="M400.9,377.8c-6.4-6.4-16.7-6.4-23.1,0c-6.4,6.4-6.4,16.7,0,23.1l36.1,36.1c6.4,6.4,16.7,6.4,23.1,0
				c6.4-6.4,6.4-16.7,0-23.1L400.9,377.8z"/>
			<path class="st0" d="M83.7,256c0-9-7.3-16.3-16.3-16.3h-51C7.3,239.7,0,247,0,256c0,9,7.3,16.3,16.3,16.3h51
				C76.4,272.3,83.7,265,83.7,256z"/>
			<path class="st0" d="M495.7,239.7h-51c-9,0-16.3,7.3-16.3,16.3c0,9,7.3,16.3,16.3,16.3h51c9,0,16.3-7.3,16.3-16.3
				C512,247,504.7,239.7,495.7,239.7z"/>
			<path class="st0" d="M111.1,377.8L75,413.9c-6.4,6.4-6.4,16.7,0,23.1c6.4,6.4,16.7,6.4,23.1,0l36.1-36.1c6.4-6.4,6.4-16.7,0-23.1
				C127.8,371.4,117.4,371.4,111.1,377.8z"/>
			<path class="st0" d="M400.9,134.2L437,98.1c6.4-6.4,6.4-16.7,0-23.1c-6.4-6.4-16.7-6.4-23.1,0l-36.1,36.1
				c-6.4,6.4-6.4,16.7,0,23.1C384.2,140.6,394.6,140.6,400.9,134.2z"/>
		</g>
	</g>
</g>
</svg>
